<!DOCTYPE svg PUBLIC "-//W3C//DTD SVG 1.1//EN" "http://www.w3.org/Graphics/SVG/1.1/DTD/svg11.dtd">
<!-- Uploaded to: SVG Repo, www.svgrepo.com, Transformed by: SVG Repo Mixer Tools -->
<svg fill="#000000" height="800px" width="800px" version="1.1" id="Capa_1" xmlns="http://www.w3.org/2000/svg" xmlns:xlink="http://www.w3.org/1999/xlink" viewBox="-11.2 -11.2 246.47 246.47" xml:space="preserve">
<g id="SVGRepo_bgCarrier" stroke-width="0"/>
<g id="SVGRepo_tracerCarrier" stroke-linecap="round" stroke-linejoin="round" stroke="#ff7ace" stroke-width="7.1701760000000005"> <g> <path d="M136.675,92.422c-9.151,0-17.755,3.885-24.62,10.913c-6.846-7.1-15.35-10.913-24.666-10.913 c-16.266,0-30.635,11.799-34.942,28.692c-2.257,8.849-2.729,22.934,7.832,39.776c9.433,15.042,25.635,28.898,48.155,41.183 c1.12,0.611,2.355,0.916,3.592,0.916c1.235,0,2.472-0.305,3.591-0.915c22.527-12.285,38.734-26.141,48.171-41.183 c10.566-16.842,10.095-30.926,7.839-39.775C167.318,104.221,152.946,92.422,136.675,92.422z M112.025,186.9 c-49.227-28.129-46.971-54.525-45.044-62.08c2.57-10.081,11.153-17.398,20.407-17.398c7.04,0,13.512,4.284,18.221,12.063 c1.358,2.244,3.791,3.615,6.415,3.616c0,0,0,0,0.001,0c2.623,0,5.056-1.37,6.414-3.613c4.715-7.781,11.19-12.066,18.235-12.066 c9.26,0,17.846,7.317,20.416,17.398C159.017,132.374,161.269,158.769,112.025,186.9z"/> <path d="M79.678,79.563c16.124,0,29.242-13.117,29.242-29.24c0-16.125-13.118-29.243-29.242-29.243 c-16.125,0-29.244,13.119-29.244,29.243C50.434,66.446,63.553,79.563,79.678,79.563z M79.678,36.08 c7.854,0,14.242,6.39,14.242,14.243c0,7.852-6.389,14.24-14.242,14.24c-7.854,0-14.244-6.388-14.244-14.24 C65.434,42.469,71.823,36.08,79.678,36.08z"/> <path d="M144.395,79.563c16.124,0,29.242-13.117,29.242-29.24c0-16.125-13.118-29.243-29.242-29.243 c-16.124,0-29.242,13.119-29.242,29.243C115.152,66.446,128.27,79.563,144.395,79.563z M144.395,36.08 c7.853,0,14.242,6.39,14.242,14.243c0,7.852-6.389,14.24-14.242,14.24c-7.854,0-14.242-6.388-14.242-14.24 C130.152,42.469,136.541,36.08,144.395,36.08z"/> <path d="M27.066,65.42C12.142,65.42,0,77.563,0,92.489c0,14.924,12.142,27.065,27.066,27.065c14.926,0,27.068-12.142,27.068-27.065 C54.135,77.563,41.992,65.42,27.066,65.42z M27.066,104.554C20.413,104.554,15,99.142,15,92.489 c0-6.654,5.413-12.068,12.066-12.068c6.654,0,12.068,5.414,12.068,12.068C39.135,99.142,33.721,104.554,27.066,104.554z"/> <path d="M197,65.42c-14.925,0-27.066,12.143-27.066,27.068c0,14.924,12.142,27.065,27.066,27.065 c14.926,0,27.068-12.142,27.068-27.065C224.068,77.563,211.926,65.42,197,65.42z M197,104.554c-6.653,0-12.066-5.413-12.066-12.065 c0-6.654,5.413-12.068,12.066-12.068c6.654,0,12.068,5.414,12.068,12.068C209.068,99.142,203.654,104.554,197,104.554z"/> </g> </g>
<g id="SVGRepo_iconCarrier"> <g> <path d="M136.675,92.422c-9.151,0-17.755,3.885-24.62,10.913c-6.846-7.1-15.35-10.913-24.666-10.913 c-16.266,0-30.635,11.799-34.942,28.692c-2.257,8.849-2.729,22.934,7.832,39.776c9.433,15.042,25.635,28.898,48.155,41.183 c1.12,0.611,2.355,0.916,3.592,0.916c1.235,0,2.472-0.305,3.591-0.915c22.527-12.285,38.734-26.141,48.171-41.183 c10.566-16.842,10.095-30.926,7.839-39.775C167.318,104.221,152.946,92.422,136.675,92.422z M112.025,186.9 c-49.227-28.129-46.971-54.525-45.044-62.08c2.57-10.081,11.153-17.398,20.407-17.398c7.04,0,13.512,4.284,18.221,12.063 c1.358,2.244,3.791,3.615,6.415,3.616c0,0,0,0,0.001,0c2.623,0,5.056-1.37,6.414-3.613c4.715-7.781,11.19-12.066,18.235-12.066 c9.26,0,17.846,7.317,20.416,17.398C159.017,132.374,161.269,158.769,112.025,186.9z"/> <path d="M79.678,79.563c16.124,0,29.242-13.117,29.242-29.24c0-16.125-13.118-29.243-29.242-29.243 c-16.125,0-29.244,13.119-29.244,29.243C50.434,66.446,63.553,79.563,79.678,79.563z M79.678,36.08 c7.854,0,14.242,6.39,14.242,14.243c0,7.852-6.389,14.24-14.242,14.24c-7.854,0-14.244-6.388-14.244-14.24 C65.434,42.469,71.823,36.08,79.678,36.08z"/> <path d="M144.395,79.563c16.124,0,29.242-13.117,29.242-29.24c0-16.125-13.118-29.243-29.242-29.243 c-16.124,0-29.242,13.119-29.242,29.243C115.152,66.446,128.27,79.563,144.395,79.563z M144.395,36.08 c7.853,0,14.242,6.39,14.242,14.243c0,7.852-6.389,14.24-14.242,14.24c-7.854,0-14.242-6.388-14.242-14.24 C130.152,42.469,136.541,36.08,144.395,36.08z"/> <path d="M27.066,65.42C12.142,65.42,0,77.563,0,92.489c0,14.924,12.142,27.065,27.066,27.065c14.926,0,27.068-12.142,27.068-27.065 C54.135,77.563,41.992,65.42,27.066,65.42z M27.066,104.554C20.413,104.554,15,99.142,15,92.489 c0-6.654,5.413-12.068,12.066-12.068c6.654,0,12.068,5.414,12.068,12.068C39.135,99.142,33.721,104.554,27.066,104.554z"/> <path d="M197,65.42c-14.925,0-27.066,12.143-27.066,27.068c0,14.924,12.142,27.065,27.066,27.065 c14.926,0,27.068-12.142,27.068-27.065C224.068,77.563,211.926,65.42,197,65.42z M197,104.554c-6.653,0-12.066-5.413-12.066-12.065 c0-6.654,5.413-12.068,12.066-12.068c6.654,0,12.068,5.414,12.068,12.068C209.068,99.142,203.654,104.554,197,104.554z"/> </g> </g>
</svg>