<!DOCTYPE svg PUBLIC "-//W3C//DTD SVG 1.1//EN" "http://www.w3.org/Graphics/SVG/1.1/DTD/svg11.dtd">
<!-- Uploaded to: SVG Repo, www.svgrepo.com, Transformed by: SVG Repo Mixer Tools -->
<svg fill="#f48ae1" version="1.1" id="Capa_1" xmlns="http://www.w3.org/2000/svg" xmlns:xlink="http://www.w3.org/1999/xlink" width="800px" height="800px" viewBox="0 0 435.391 435.391" xml:space="preserve" stroke="#f48ae1">
<g id="SVGRepo_bgCarrier" stroke-width="0"/>
<g id="SVGRepo_tracerCarrier" stroke-linecap="round" stroke-linejoin="round"/>
<g id="SVGRepo_iconCarrier"> <g> <path d="M1.789,266.954c0-16.6,41.624-31.147,103.936-39.182c-6.924,12.31-10.25,27.787-10.25,42.569 c0,3.544,0.368,6.992,0.982,10.358c-26.027,6.444-38.691,13.614-42.518,16.098C21.458,288.785,1.789,278.354,1.789,266.954z M328.132,227.585c6.836,12.233,10.177,27.649,10.177,42.767c0,3.702-0.386,7.312-1.051,10.831 c26.35,6.008,41.345,12.497,46.569,15.031c31.067-7.937,49.774-18.128,49.774-29.254 C433.606,250.218,391.292,235.578,328.132,227.585z M215.538,311.138c-0.708,0.27-1.498,0.569-2.351,0.889 c-14.018,5.317-40.114,15.234-60.321,15.234c-24.336,0-45.169-15.117-53.705-36.439c-13.294,3.295-22.914,6.738-29.338,9.521 c5.931,1.184,12.157,2.296,18.687,3.332c8.49,1.346,20.378,7.104,26.525,13.111l14.822,14.508 c6.14,6.007,18.088,10.882,26.688,10.882h124.484c8.597,0,20.586-4.835,26.771-10.796l15.676-15.107 c6.195-5.967,18.118-11.709,26.604-13.111c5.556-0.914,10.857-1.898,15.955-2.92c-7.662-2.711-18.469-5.977-32.479-9.125 c-8.607,21.165-29.376,36.15-53.604,36.15C255.024,327.261,240.44,323.727,215.538,311.138z M180.731,117.226 c22.155-11.558,26.862-46.327,10.517-77.663c-16.344-31.336-47.556-47.367-69.711-35.81 c-22.155,11.555-26.862,46.326-10.516,77.663C127.367,112.749,158.579,128.783,180.731,117.226z M110.13,200.001 c22.15-11.558,26.85-46.332,10.499-77.67S73.065,74.956,50.916,86.514c-22.15,11.558-26.853,46.332-10.501,77.673 C56.768,195.522,87.979,211.559,110.13,200.001z M245.138,117.235c22.155,11.555,53.369-4.479,69.716-35.812 c16.341-31.336,11.634-66.107-10.517-77.662c-22.155-11.558-53.364,4.476-69.716,35.812 C218.278,70.906,222.987,105.678,245.138,117.235z M305.241,122.339c-16.352,31.339-11.645,66.11,10.506,77.665 s53.359-4.481,69.705-35.82c16.352-31.338,11.645-66.112-10.506-77.667C352.796,74.961,321.587,91,305.241,122.339z M141.009,202.835c0,4.235,0.439,8.354,1.168,12.373c-24.481,1.247-35.178,30.145-35.178,54.936 c0,25.593,20.746,46.342,46.342,46.342c23.153,0,58.216-15.768,63.551-17.103c27.484,14.345,40.616,17.103,63.549,17.103 c25.593,0,46.341-20.749,46.341-46.342c0-23.877-9.303-52.141-32.509-54.659c0.767-4.104,1.214-8.323,1.214-12.649 c0-37.783-39.461-77.241-77.241-77.241C180.459,125.594,141.009,165.052,141.009,202.835z M346.556,315.449 c37.557-6.195,63.454-14.335,77.525-24.309l-28.98,109.243c0,0-33.707,35.007-173.761,35.007 c-140.051,0-190.63-36.307-190.62-36.317L1.796,291.177c14.482,10.247,41.426,18.544,80.699,24.785 c7.038,1.117,17.451,6.246,22.3,10.989l14.83,14.508c7.637,7.47,21.447,13.101,32.128,13.101h124.481 c10.658,0,24.491-5.575,32.159-12.969l15.69-15.107C328.985,321.771,339.477,316.607,346.556,315.449z M243.27,388.187 c-6.282,0-11.38,0-11.38,0l-3.504-10.812c-1.935-5.972-5.094-5.972-7.023,0c-1.949,5.977-3.519,10.812-3.519,10.812h-11.364 c-6.279,0-7.247,2.995-2.168,6.692c5.096,3.691,9.199,6.678,9.199,6.678l-3.504,10.811c-1.938,5.977,0.614,7.83,5.688,4.134 c5.062-3.696,9.188-6.683,9.188-6.683l9.191,6.683c5.072,3.691,7.622,1.843,5.688-4.134c-1.945-5.972-3.52-10.811-3.52-10.811 l9.206-6.678C250.516,391.182,249.551,388.187,243.27,388.187z"/> </g> </g>
</svg>