<!DOCTYPE svg PUBLIC "-//W3C//DTD SVG 1.1//EN" "http://www.w3.org/Graphics/SVG/1.1/DTD/svg11.dtd">
<!-- Uploaded to: SVG Repo, www.svgrepo.com, Transformed by: SVG Repo Mixer Tools -->
<svg width="800px" height="800px" viewBox="-34.19 -34.19 410.24 410.24" xmlns="http://www.w3.org/2000/svg" fill="#000000">
<g id="SVGRepo_bgCarrier" stroke-width="0">
<path transform="translate(-34.19, -34.19), scale(12.82)" d="M16,29.434306798709763C20.160023096852,29.28333330190281,24.126278847880087,27.798979925698504,26.87180618160054,24.669976118913652C29.795590300170588,21.337817839205083,32.29483539675613,16.78708336654545,30.739817059242327,12.63573294252333C29.284606089524097,8.750832983182617,24.072935946670647,8.794287220199596,20.28849306741584,7.094852386458882C16.735710636059114,5.499446559713116,13.610473290201222,2.1922554402331667,9.865728400967164,3.262053772222311C5.539413537986851,4.4979949540588215,2.187070537250187,8.234217112596337,1.0561157656993032,12.58915594147902C-0.1127298662648415,17.09000014467407,1.005534958103345,22.018118024543014,4.091505450756896,25.49670750467253C7.010593825518467,28.78718294382118,11.60422294267103,29.593836161426747,16,29.434306798709763" fill="#FF69B4" strokewidth="0"/>
</g>
<g id="SVGRepo_tracerCarrier" stroke-linecap="round" stroke-linejoin="round"/>
<g id="SVGRepo_iconCarrier">
<defs>
<style>.a{fill:#211715;}.b{fill:#ffffff;}.c{fill:#8cb8df;}.d{fill:#65a0d4;}.e{fill:#3f88c9;}.f{fill:#7a7473;}.g{fill:#cfcfcf;}</style>
</defs>
<path class="a" d="M142.964,68.872q0-16.815,0-33.629a2.02,2.02,0,0,0-3.01-1.727L93.473,60.347,49.3,85.845,29.579,97.231a2.013,2.013,0,0,0-.991,1.727q0,22.566.01,45.133.006,27.612.011,55.225,0,16.917,0,33.834a2.019,2.019,0,0,0,3.01,1.727q13.132-7.586,26.268-15.168c2.229-1.287.217-4.745-2.019-3.454q-13.134,7.583-26.268,15.168l3.009,1.727q0-29.451-.01-58.9,0-25.689-.011-51.378,0-11.957-.005-23.912l-.99,1.727,38-21.933,46.078-26.6,26.3-15.182-3.009-1.727q0,16.815,0,33.629c0,2.574,4,2.578,4,0Z"/>
<path class="b" d="M110.818,167.042c-1.9-1.1-6.644-3.856-12.216-7.1L66.98,178.22c0,5.568.014,82.059.014,86.924,6.339,3.674,11.318,6.476,13.483,7.728Z"/>
<path class="c" d="M110.493,168.432c-9.352,5.405-19.452,11.243-29.958,17.317,0,9.524.016,74.7.016,87.185.337-.2,20.956-12.119,30.222-17.469,0-4.1-.018-71.824-.016-87.186Z"/>
<path class="b" d="M235.485,9.1c-1.9-1.1-6.644-3.855-12.216-7.1L191.646,20.278c0,5.568.015,168.224.015,173.088,6.339,3.674,11.317,6.476,13.482,7.728Z"/>
<path class="b" d="M172.152,76.815c-1.9-1.1-6.644-3.855-12.217-7.1L128.313,87.993c0,5.568.015,136.731.015,141.6,6.338,3.674,11.317,6.477,13.482,7.728Z"/>
<path class="d" d="M171.826,78.205,141.868,95.522c0,9.524.016,129.368.016,141.856.338-.2,20.957-12.119,30.222-17.469,0-4.1-.017-126.495-.016-141.856Z"/>
<path class="e" d="M235.159,10.491,205.2,27.808c0,9.523.015,160.86.015,173.348.338-.2,20.957-12.119,30.222-17.469,0-4.1-.017-157.988-.016-173.349Z"/>
<path class="a" d="M236.494,7.373q-6.115-3.537-12.216-7.1a2.022,2.022,0,0,0-2.019,0L200.832,12.657l-5.694,3.292-2.779,1.607c-.948.548-2.323,1.031-2.641,2.191a5.034,5.034,0,0,0-.072,1.3q0,4.794,0,9.588,0,8.976,0,17.953,0,11.878,0,23.758l0,27q0,13.845,0,27.688l0,25.7q0,10.7,0,21.405,0,7.212,0,14.423v3.794c0,.3-.015.6,0,.9.081,1.578,1.477,2.106,2.685,2.8q2.562,1.479,5.131,2.947c2.219,1.268,4.444,2.523,6.657,3.8,2.233,1.29,4.25-2.165,2.019-3.454-4.486-2.59-9-5.131-13.482-7.728l.99,1.727q0-9.312,0-18.625,0-20.238,0-40.477,0-24.329,0-48.657l0-42.329q0-11.173,0-22.349v-.651l-.99,1.727L224.278,3.724h-2.019q6.105,3.558,12.216,7.1c2.233,1.292,4.249-2.164,2.019-3.454Z"/>
<path class="a" d="M191.558,22.5q5.714,3.321,11.428,6.637a2,2,0,1,0,2.019-3.454q-5.719-3.307-11.428-6.637a2,2,0,0,0-2.019,3.454Z"/>
<path class="a" d="M173.161,75.088q-6.115-3.538-12.216-7.1a2.02,2.02,0,0,0-2.019,0l-17.7,10.23q-4.713,2.724-9.425,5.449c-1.485.858-3.087,1.63-4.5,2.6a2.236,2.236,0,0,0-.991,1.935c-.089,2.36,0,4.741,0,7.1q0,17.011,0,34.023,0,22.792,0,45.587,0,19.683,0,39.368,0,5.919,0,11.839,0,1.449,0,2.9a2.447,2.447,0,0,0,.99,2.3c2.608,1.784,5.56,3.206,8.307,4.772,1.725.985,3.455,1.963,5.176,2.956,2.233,1.29,4.249-2.165,2.018-3.454-4.485-2.59-9-5.131-13.482-7.728l.991,1.727q0-7.738,0-15.476,0-16.522,0-33.045,0-19.7,0-39.407,0-17.279,0-34.557,0-9.245,0-18.491v-.619l-.991,1.727,31.623-18.281h-2.019q6.1,3.558,12.216,7.1c2.233,1.291,4.249-2.164,2.019-3.454Z"/>
<path class="a" d="M128.225,90.217q5.712,3.321,11.428,6.636a2,2,0,0,0,2.019-3.454q-5.719-3.308-11.428-6.636a2,2,0,1,0-2.019,3.454Z"/>
<path class="a" d="M64.989,239.687q0,10.012,0,20.027,0,2.388,0,4.775a2.782,2.782,0,0,0,1.634,2.754q2.56,1.482,5.128,2.951c2.569,1.471,5.148,2.924,7.711,4.4,2.234,1.29,4.25-2.166,2.019-3.454-4.486-2.591-9-5.132-13.482-7.728l.99,1.727q0-12.729,0-25.457c0-2.574-4-2.578-4,0Z"/>
<path class="a" d="M111.828,165.315q-6.117-3.538-12.217-7.1a2.02,2.02,0,0,0-2.019,0L73.227,172.3l-6.4,3.7c-.973.563-1.783,1.057-1.852,2.286-.009.154,0,.312,0,.467v3.88q0,17.795,0,35.59,0,10.882,0,21.766c0,2.574,4,2.578,4,0q-.006-27.62-.007-55.239,0-3.263,0-6.524l-.991,1.726,31.622-18.281H97.592q6.105,3.558,12.217,7.1c2.232,1.291,4.249-2.164,2.019-3.454Z"/>
<path class="a" d="M66.892,180.444q5.712,3.32,11.428,6.636a2,2,0,0,0,2.019-3.454q-5.721-3.308-11.429-6.636a2,2,0,1,0-2.018,3.454Z"/>
<path class="a" d="M246.829,179.14q13.558-7.828,27.111-15.672l7.408-4.282c2.228-1.288.216-4.746-2.019-3.454q-14.847,8.58-29.69,17.163l-4.829,2.791c-2.229,1.287-.217,4.745,2.019,3.454Z"/>
<path class="a" d="M33.495,302.992q13.56-7.83,27.111-15.672l7.408-4.282c2.228-1.288.217-4.746-2.018-3.454q-14.847,8.579-29.691,17.163-2.414,1.4-4.829,2.791c-2.228,1.287-.216,4.745,2.019,3.454Z"/>
<path class="a" d="M237.427,61.909q0-22.785,0-45.57,0-3,0-6a2.018,2.018,0,0,0-3.009-1.727L214.83,19.932c-3.4,1.962-6.878,3.824-10.206,5.9a2.752,2.752,0,0,0-1.422,2.757q0,4.538,0,9.075,0,18.876,0,37.751,0,25.06,0,50.121,0,23.482,0,46.964,0,13.692,0,27.383v1.274a2.019,2.019,0,0,0,3.01,1.727c7.338-4.316,14.741-8.525,22.113-12.785l6.778-3.916c1.1-.635,2.242-1.115,2.321-2.566.011-.189,0-.382,0-.571v-6.21l0-27.423q0-19.934,0-39.869,0-21.306,0-42.612V61.909c0-2.574-4-2.578-4,0l.006,62.471q0,24.432,0,48.864,0,5.221,0,10.443l.991-1.727q-13.695,7.908-27.384,15.826c-.946.547-1.9,1.089-2.838,1.643l3.009,1.727q0-10.6,0-21.2,0-20.121,0-40.244,0-23.513-.005-47.025l0-41.178q0-11.38,0-22.763v-.936l-.991,1.726,30.222-17.469-3.01-1.727q0,19.338,0,38.677,0,6.447,0,12.894c0,2.574,4,2.578,4,0Z"/>
<path class="a" d="M170.816,76.478l-15.576,9-8.171,4.723-4.057,2.345c-1.272.736-3.042,1.329-3.144,3.012-.135,2.246,0,4.543,0,6.792l0,29.939q0,20.607,0,41.215,0,19.432,0,38.863,0,11.9,0,23.8v1.209a2.019,2.019,0,0,0,3.01,1.727c5.221-3.071,10.489-6.067,15.734-9.1l11.586-6.695c1.413-.816,3.792-1.634,3.892-3.48.014-.255,0-.513,0-.768l0-23.713q0-21.411,0-42.822l-.006-44.315q0-14.293,0-28.588V78.053a2.018,2.018,0,0,0-3.009-1.727l-.265.152c-2.228,1.288-.216,4.746,2.019,3.454l.265-.153-3.01-1.726q0,9.78,0,19.56,0,16.989,0,33.977,0,19.168,0,38.335,0,16.314,0,32.629,0,8.423,0,16.844v.511l.991-1.727q-13.695,7.908-27.385,15.826c-.946.548-1.895,1.089-2.837,1.643l3.009,1.727q0-9.027,0-18.053,0-16.342,0-32.685,0-19.015,0-38.031,0-16.59,0-33.18,0-9.51,0-19.02v-.887l-.99,1.727,29.957-17.317C175.063,78.644,173.051,75.186,170.816,76.478Z"/>
<path class="a" d="M78.543,232.335q0,20.3.008,40.6a2.018,2.018,0,0,0,3.009,1.727c7.249-4.263,14.561-8.421,21.842-12.629l6.724-3.884c1.158-.669,2.558-1.2,2.647-2.732.012-.218,0-.44,0-.658q0-3.15,0-6.3,0-12.52,0-25.041,0-15.234-.006-30.467,0-11.487,0-22.973v-1.7a2.02,2.02,0,0,0-3.01-1.727L90.163,177.873c-3.4,1.963-6.878,3.824-10.206,5.9a2.628,2.628,0,0,0-1.422,2.564v1.689q0,13.857,0,27.714,0,8.566,0,17.133c0,2.574,4,2.578,4,0q0-20.693-.005-41.385v-5.738l-.991,1.727,30.222-17.47-3.009-1.727q0,17.532,0,35.062,0,20.76.009,41.519,0,5.3,0,10.6l.99-1.727q-13.7,7.908-27.384,15.826c-.946.547-1.9,1.089-2.838,1.643l3.01,1.727q0-20.3-.008-40.6c0-2.574-4-2.578-4,0Z"/>
<path class="a" d="M227.171,57.747q13.086-7.555,26.154-15.139c2.228-1.289.216-4.747-2.018-3.454q-13.08,7.566-26.155,15.139c-2.228,1.287-.216,4.745,2.019,3.454Z"/>
<path class="a" d="M2.989,151.6q9.325-5.385,18.647-10.778L49.4,124.775l12.747-7.368c2.228-1.287.216-4.745-2.019-3.454q-12.385,7.158-24.77,14.319L9.286,143.346.97,148.151c-2.229,1.287-.217,4.745,2.019,3.454Z"/>
<path class="b" d="M338.436,315.632l-1-.54h-.005c-3.163,1.524-13.135,1.711-15.024.345-3.607,4.147-8.8,4.747-13.478,4.118a7.839,7.839,0,0,1-1.88-.376,13.089,13.089,0,0,1-4.529-2.64c-.013-.014-.031-.02-.044-.034-.35.031-.575.053-.575.053-.771-.463-3.122.014-4.085,1.464s-.93,4.243-.386,5.9c1.187,3.6,4.657,5.432,8.227,6.718a21.53,21.53,0,0,0,11.545,1.029,6.029,6.029,0,0,0,3.849-2.99,7.956,7.956,0,0,0,.879-2.816l6.14,1.412a15.573,15.573,0,0,0,3.833.492,18.2,18.2,0,0,0,1.833-.107,6.071,6.071,0,0,0,4.574-2.478,7.9,7.9,0,0,0,.9-3.765C339.249,320.1,338.394,316.944,338.436,315.632Z"/>
<path class="b" d="M321.34,179.492a6.591,6.591,0,0,1-.926,2.241,9.683,9.683,0,0,1-3.661,3.21,19.465,19.465,0,0,0,12.4,9.486,10.3,10.3,0,0,0-2.282,3.006,23.6,23.6,0,0,0-6.659.514c-5.508,1.071-13.1,3.571-15.087,4.861a14.457,14.457,0,0,0-3.305,3.092l1.272-4.1a7.61,7.61,0,0,0,.029-4.626,7.006,7.006,0,0,0-3.131-3.46l.526-2.837c-.011-.009-.021-.02-.032-.03a18.537,18.537,0,0,1-4.838-9.54,23.547,23.547,0,0,1,4.12-18.328,22.721,22.721,0,0,1,2.948-3.269A40.091,40.091,0,0,0,315.946,173.6a4.483,4.483,0,0,1,5,2.207A5.606,5.606,0,0,1,321.34,179.492Z"/>
<path class="b" d="M297.888,192.889a7.466,7.466,0,0,0-3.383-.05,6.76,6.76,0,0,0-5.278,7.223l.137,1.992a2.536,2.536,0,0,1,.867.2c2.081.983,7.968,4.259,9.51,5.261l.6.375a19.446,19.446,0,0,1,4.128-4.617l-1.383-1.471a7.61,7.61,0,0,0,.029-4.626A7.452,7.452,0,0,0,297.888,192.889Z"/>
<path class="f" d="M313.356,154.253a22.733,22.733,0,0,0-10.653,5.462A40.207,40.207,0,0,0,315.946,173.6a4.483,4.483,0,0,1,5,2.207,6.135,6.135,0,0,1-.528,5.928,9.683,9.683,0,0,1-3.661,3.21,19.466,19.466,0,0,0,12.392,9.485c.094-.1.192-.2.3-.315,2.777-3.056,4.778-5.186,6.479-8.187a22.1,22.1,0,0,0,2.75-13.894c-1.384-9.628-9.571-17.684-19.288-18.234A22.886,22.886,0,0,0,313.356,154.253Z"/>
<path class="a" d="M305.52,172.455a3.176,3.176,0,0,1-1.494,2.271,2.471,2.471,0,0,1-1.841.188,2.766,2.766,0,0,1-1.864-1.671,3.24,3.24,0,0,1,1.115-3.646,2.565,2.565,0,0,1,3.458.488A2.861,2.861,0,0,1,305.52,172.455Z"/>
<path class="b" d="M329.576,258.64q1.695-.264,3.477-.557c1.611-.262,4.326-.974,5.2-2.023,1.111-1.334,1.053-2.745,1.113-4.729.461-15.271,1.349-26.657-1.319-39.685-.835-4.079-2-8.318-4.919-11.285s-6.631-3.636-12.922-2.412c-5.508,1.071-13.1,3.571-15.087,4.861a18.045,18.045,0,0,0-4.786,5.088l-.593-.386c-1.542-1-7.429-4.278-9.51-5.261a2.9,2.9,0,0,0-1.4-.193c-.614.089-.918.777-1.1,1.37a112.985,112.985,0,0,0-3.261,15.626,53.052,53.052,0,0,0-.294,16.169,7.847,7.847,0,0,0,3.217,5.125c1.489,1.243,3.712,1.111,5.6.681a16.652,16.652,0,0,0,5.481-2.381l-.068,6.594c-.008,3.107.128,6.669.128,6.669-.068,1.677.812,4.5,2.186,5.445,1.222.842,2.852,1.222,6.518,1.889C314.728,260.607,321.453,259.906,329.576,258.64Z"/>
<path class="g" d="M315.841,259.986a46.589,46.589,0,0,1-8.606-.741c-4.126-.751-5.673-1.137-6.962-2.23-.076,9.009.637,44.383,1.336,57.241l.213,1.067c.308,1.542,2.7,2.852,5.225,3.855a7.889,7.889,0,0,0,1.88.377c4.673.628,9.871.028,13.477-4.119,2.311,1.671,16.719,1.019,15.964-1.56-.465-12.778-.875-38.592-.5-50.05,0,0-.1-3.931-.188-7.27a13.62,13.62,0,0,1-4.624,1.527A110.529,110.529,0,0,1,315.841,259.986Z"/>
<path class="a" d="M298.272,259.492c.046,14.884.418,29.777.919,44.652.115,3.413.238,6.828.424,10.239.139,2.56,4.14,2.576,4,0-.809-14.858-1.011-29.767-1.236-44.643-.051-3.415-.1-6.832-.107-10.248-.008-2.573-4.008-2.578-4,0Z"/>
<path class="a" d="M335.865,263.826c-.443,13.93-.1,27.915.256,41.844.084,3.321.18,6.642.315,9.962.1,2.565,4.1,2.578,4,0-.566-13.933-.753-27.9-.713-41.843.01-3.321.036-6.644.142-9.963.082-2.575-3.918-2.572-4,0Z"/>
<path class="a" d="M320.172,278.016c-.566,11-.867,22.04-.981,33.055-.019,1.9-.086,3.821.056,5.717.191,2.551,4.192,2.572,4,0-.32-4.267-.026-8.636.07-12.906q.212-9.344.557-18.682c.087-2.395.174-4.791.3-7.184.132-2.573-3.868-2.566-4,0Z"/>
<path class="a" d="M299.894,315.855c.5,1.954,2.32,3.219,4.016,4.1a14.582,14.582,0,0,0,3.216,1.34,21.223,21.223,0,0,0,3.27.417,16.785,16.785,0,0,0,11.956-3.429,2.01,2.01,0,0,0,0-2.828,2.048,2.048,0,0,0-2.828,0,12.567,12.567,0,0,1-8.535,2.293,11.268,11.268,0,0,1-4.476-.959,10.705,10.705,0,0,1-2.133-1.222,5.66,5.66,0,0,1-.553-.542c.085.1.062.053-.069-.14.062.165.059.135-.007-.089-.641-2.492-4.5-1.436-3.857,1.063Z"/>
<path class="a" d="M322.642,317.714a23.446,23.446,0,0,0,7.817.6,21.231,21.231,0,0,0,7.984-1.493,2.017,2.017,0,0,0,.718-2.736,2.046,2.046,0,0,0-2.737-.718c-.359.168.469-.157.066-.025-.1.032-.192.071-.289.1-.234.079-.471.148-.71.21-.553.145-1.115.255-1.679.347l-.421.064c-.239.037.319-.035-.075.01-.33.038-.66.077-.99.108q-1.026.1-2.056.137a36.485,36.485,0,0,1-3.913-.037q-.41-.027-.816-.067c-.154-.015-.308-.037-.462-.051.541.049.054.006-.047-.01a9.424,9.424,0,0,1-1.327-.3,2,2,0,0,0-1.063,3.857Z"/>
<path class="a" d="M302.909,314.83a5.363,5.363,0,0,0-4.916.409,6,6,0,0,0-2.862,4.808,10.489,10.489,0,0,0,4.785,10.023,24.746,24.746,0,0,0,12.463,3.949c4.221.213,8.782-.681,10.685-4.921,1.634-3.642.976-7.937.111-11.686-.578-2.507-4.436-1.446-3.857,1.064a23.539,23.539,0,0,1,.729,5.828,8.735,8.735,0,0,1-.174,1.752c-.062.272-.126.542-.21.808-.026.082-.315.786-.123.372-1.716,3.7-6.969,3.084-10.281,2.359-3.249-.711-7.566-2.081-9.389-5.122a6.274,6.274,0,0,1-.69-4.541,1.633,1.633,0,0,1,.959-1.311c.269-.125.588-.128.85-.247.127-.058.271.087-.1-.09,2.31,1.107,4.341-2.34,2.019-3.454Z"/>
<path class="a" d="M336.436,315.632a25.219,25.219,0,0,0,.643,4.47,3.931,3.931,0,0,1,.1.607c0-.527-.016-.118,0,.021a5.969,5.969,0,0,1,.027.856c-.01.243-.033.483-.052.725-.035.468.059-.207-.03.22-.052.251-.1.5-.165.748-.02.075-.209.638-.143.475s-.2.349-.228.415c-.132.189-.131.2,0,.026-.056.069-.114.135-.174.2a4.872,4.872,0,0,1-.448.426c.313-.264-.172.1-.248.149-.181.109-.367.2-.555.3-.212.1-.22.1-.023.01-.085.032-.171.062-.257.09a9.527,9.527,0,0,1-1.234.3q-.22.036.088-.012c-.15.016-.3.03-.451.043-.249.021-.5.037-.748.048-.465.021-.93.022-1.4,0-.224-.011-.448-.035-.672-.05q-.36-.043-.045,0c-.1-.014-.195-.029-.292-.045-.515-.082-1.024-.191-1.531-.31a2,2,0,0,0-1.063,3.858c4.14.968,10.054,1.109,12.544-3.09a9.422,9.422,0,0,0,1.043-5.789c-.126-.973-.306-1.935-.477-2.9-.038-.211-.075-.422-.109-.634-.017-.1-.033-.2-.049-.3q-.049-.344.011.1a2.771,2.771,0,0,1-.064-.951,2,2,0,0,0-4,0Z"/>
<path class="a" d="M307.291,226.39c-2.707,3.73-5.581,7.653-9.436,10.281a15.094,15.094,0,0,1-6.119,2.575,4.609,4.609,0,0,1-5.03-2.627,7.856,7.856,0,0,1-.751-3.04c-.167-1.5-.254-3.013-.272-4.524a55.692,55.692,0,0,1,.637-9c.423-2.789.884-5.577,1.428-8.345.272-1.382.569-2.76.906-4.128q.281-1.14.6-2.27.129-.452.263-.9a4.327,4.327,0,0,0,.152-.51q.108-.342-.5.14c0-.02,1.75.8,1.892.87,1,.526,1.993,1.067,2.982,1.614,1.579.874,3.174,1.741,4.693,2.716,2.173,1.395,4.181-2.066,2.019-3.454-1.654-1.062-3.395-2-5.116-2.949-1.746-.961-3.82-2.464-5.827-2.733-3.9-.523-4.444,4.044-5.121,6.87-.8,3.353-1.379,6.755-1.927,10.157a73.362,73.362,0,0,0-1.072,10.486c-.026,1.594.02,3.191.152,4.78a18.011,18.011,0,0,0,.846,5.012c1,2.562,3.325,5.159,6.1,5.744,2.814.593,5.829-.3,8.374-1.477,5.854-2.7,9.906-8.194,13.587-13.266a2.016,2.016,0,0,0-.717-2.737,2.046,2.046,0,0,0-2.737.718Z"/>
<path class="a" d="M305.016,202.33A8.463,8.463,0,0,0,300.44,191.7c-3.684-1.72-8.337-1.266-11.071,1.972a9.092,9.092,0,0,0-2.142,6.388,2.045,2.045,0,0,0,2,2,2.018,2.018,0,0,0,2-2c-.014-.259-.022-.516-.013-.775,0-.084.094-.836.021-.407a9.353,9.353,0,0,1,.323-1.244c.085-.218.086-.227,0-.025.049-.11.1-.217.157-.324.083-.159.172-.315.267-.466.045-.071.48-.63.212-.319.156-.181.315-.357.487-.523.129-.125.264-.245.4-.358-.315.257.268-.171.335-.212.21-.129.428-.242.65-.35-.347.169.185-.068.22-.08a7.085,7.085,0,0,1,.744-.211c.12-.027.242-.051.364-.072q-.339.039.021,0a10.893,10.893,0,0,1,1.3,0c.24.026.249.026.026,0q.186.03.369.069.276.057.547.134c.242.069.478.15.713.238-.363-.136.31.15.378.185q.249.13.489.278c.059.037.663.455.358.222a9.1,9.1,0,0,1,.94.891c.147.179.159.188.035.025.073.1.144.2.212.3.136.206.246.424.37.637.2.349-.034-.235.1.218a5.727,5.727,0,0,1,.2.815c-.037-.28.007.374.008.451,0,.261-.013.518-.025.778q-.042.38,0,.123c-.022.141-.047.282-.075.422-.054.265-.123.525-.2.784a2,2,0,0,0,3.858,1.063Z"/>
<path class="a" d="M296.4,245.242c0,2.218.071,4.432.128,6.648a9.623,9.623,0,0,0,2.457,6.619c1.418,1.374,3.549,1.841,5.415,2.225a57.413,57.413,0,0,0,8.891,1.2c6.161.29,12.305-.638,18.371-1.608,2.432-.39,5.185-.717,7.242-2.2,2.384-1.717,2.394-4.625,2.475-7.279.362-11.885,1.143-23.811-.67-35.622-.852-5.545-1.952-11.715-5.891-15.985-3.43-3.718-8.234-4.238-13.006-3.574a59.818,59.818,0,0,0-16.5,4.786,16.778,16.778,0,0,0-6.266,5.811,57.084,57.084,0,0,0-5.325,9.209,2.056,2.056,0,0,0,.717,2.736,2.015,2.015,0,0,0,2.736-.717,59.187,59.187,0,0,1,4.1-7.412c1.341-2.052,2.843-4.325,4.985-5.622a23.193,23.193,0,0,1,4.573-1.883q3.458-1.178,7.012-2.052c3.79-.932,8.665-2.184,12.27-.027,4,2.4,5.191,7.665,6.045,11.892,2.066,10.22,1.832,20.644,1.474,31.009q-.15,4.377-.29,8.754c-.027.818.028,1.975-.6,2.615a5.429,5.429,0,0,1-2.356.984,65.352,65.352,0,0,1-7.925,1.352c-2.661.381-5.336.684-8.022.816a49.211,49.211,0,0,1-8.675-.283,28.154,28.154,0,0,1-7.246-1.543,2.7,2.7,0,0,1-1.374-1.4,6.841,6.841,0,0,1-.618-2.777c-.057-2.223-.129-4.444-.128-6.669,0-2.574-4-2.578-4,0Z"/>
<path class="a" d="M328.833,198.011a29.174,29.174,0,0,1,3.746-4.385,44.3,44.3,0,0,0,4.225-5.309,24.755,24.755,0,0,0,4.069-13.234,23.8,23.8,0,0,0-11.228-20.03c-6.973-4.339-15.857-4.2-23.062-.472a25.269,25.269,0,0,0-13.34,21.2c-.477,9.916,5.863,21.4,16.988,21.063,2.568-.078,2.579-4.078,0-4-8.238.251-12.846-8.115-13.01-15.419a21.3,21.3,0,0,1,10.08-18.666c5.777-3.485,13.279-4.136,19.291-.86a19.772,19.772,0,0,1,10.235,15.653,20.832,20.832,0,0,1-3.586,12.907,42.924,42.924,0,0,1-4.094,5,28.684,28.684,0,0,0-3.768,4.527c-1.309,2.223,2.148,4.238,3.454,2.019Z"/>
<path class="a" d="M301.718,161.968a42.943,42.943,0,0,0,12.827,13.1,2.015,2.015,0,0,0,2.736-.717,2.047,2.047,0,0,0-.718-2.737q-.9-.592-1.772-1.228l-.412-.307-.163-.124c.106.083.105.083,0,0q-.446-.348-.879-.709a40.343,40.343,0,0,1-3.095-2.852c-.983-1-1.9-2.063-2.782-3.159l-.127-.161c.082.107.082.106,0,0q-.156-.2-.309-.41-.306-.412-.6-.832-.649-.924-1.247-1.884a2,2,0,0,0-3.454,2.019Z"/>
<path class="a" d="M316.426,175.533c.1-.026.588-.081.1-.045.16-.012.316-.025.477-.025s.319.012.478.028c-.27-.028-.209-.029.019.025.156.037.306.1.461.136.22.05-.283-.165.04.014.14.078.284.148.42.234.1.065.4.361.112.066.11.112.234.224.348.332.29.274-.136-.274.09.1.07.116.145.228.21.348.042.076.08.153.116.232-.073-.178-.084-.2-.035-.065s.093.284.129.428.1.537.057.177a7.281,7.281,0,0,1,.021,1.1c-.015.429.081-.257-.024.2-.035.151-.063.3-.1.452q-.071.27-.163.533c-.046.132-.165.381-.042.124a8.224,8.224,0,0,1-.549.955c-.316.482.239-.258-.136.187-.122.144-.245.285-.374.423a9.868,9.868,0,0,1-.756.719c-.088.075-.337.272-.116.1-.152.115-.309.224-.468.329a9.745,9.745,0,0,1-.978.571c-.165.085-.333.167-.5.239.32-.135-.111.03-.2.063a2,2,0,1,0,1.064,3.857c3.9-1.377,7.315-4.781,7.367-9.125a6.678,6.678,0,0,0-2.651-5.52,6.547,6.547,0,0,0-5.466-1.047,2.02,2.02,0,0,0-1.4,2.46,2.041,2.041,0,0,0,2.46,1.4Z"/>
<path class="a" d="M315.654,187.012a21.941,21.941,0,0,0,11.785,9,2.016,2.016,0,0,0,2.46-1.4,2.045,2.045,0,0,0-1.4-2.46c-.517-.17-1.022-.367-1.53-.561.449.172-.055-.024-.117-.052-.1-.044-.2-.088-.294-.134-.243-.112-.484-.23-.722-.352a23.818,23.818,0,0,1-2.779-1.729c-.245-.171.363.294-.039-.028-.1-.083-.207-.167-.31-.252-.205-.17-.407-.345-.605-.523q-.6-.54-1.148-1.13c-.185-.2-.366-.4-.542-.606-.088-.1-.176-.208-.262-.314-.032-.039-.317-.4-.15-.183s-.112-.151-.142-.193c-.082-.111-.163-.223-.243-.337-.176-.251-.346-.507-.511-.765a2,2,0,1,0-3.454,2.018Z"/>
</g>
</svg>